<svg xmlns="http://www.w3.org/2000/svg" xmlns:xlink="http://www.w3.org/1999/xlink" width="13" height="13" viewBox="0 0 13 13">
  <defs>
    <clipPath id="clip-path">
      <rect id="Rectangle_31" data-name="Rectangle 31" width="13" height="13" transform="translate(375 483)" fill="#fff" stroke="#707070" stroke-width="1"/>
    </clipPath>
  </defs>
  <g id="Mask_Group_14" data-name="Mask Group 14" transform="translate(-375 -483)" clip-path="url(#clip-path)">
    <g id="pen" transform="translate(375 483)">
      <g id="Group_12" data-name="Group 12">
        <g id="Group_11" data-name="Group 11">
          <path id="Path_14" data-name="Path 14" d="M11.843.543a1.852,1.852,0,0,0-2.621,0,.328.328,0,0,0,.464.464A1.2,1.2,0,0,1,11.379,2.7a.177.177,0,0,0-.022.025l-.025.022-.5.5L8.073.483a.328.328,0,0,0-.464,0L3.377,4.715a.328.328,0,0,0,.232.56.333.333,0,0,0,.232-.1l4-4,.374.374L1.794,7.974a.324.324,0,0,0-.1.232.336.336,0,0,0,.1.232L2,8.646l-.915.912a.324.324,0,0,0-.1.232.336.336,0,0,0,.1.232l.407.407-.781.781a.328.328,0,0,0,.232.56.333.333,0,0,0,.232-.1l.781-.781.407.407a.324.324,0,0,0,.232.1.336.336,0,0,0,.232-.1l.915-.915.207.207a.329.329,0,0,0,.232.1.333.333,0,0,0,.232-.1L11.8,3.21a.177.177,0,0,0,.022-.025l.025-.022A1.859,1.859,0,0,0,11.843.543ZM2.594,10.6,1.78,9.79l.682-.682.407.407.407.407ZM4.18,9.9l-.207-.207h0L3.334,9.05,2.487,8.2,8.679,2.015l1.693,1.693Z" fill="#ff9300"/>
          <path id="Path_15" data-name="Path 15" d="M11.469,12.345H.945a.328.328,0,0,0,0,.655H11.469a.328.328,0,0,0,0-.655Z" fill="#ff9300"/>
        </g>
      </g>
    </g>
  </g>
</svg>
