<?xml version="1.0" encoding="iso-8859-1"?>
<!-- Generator: Adobe Illustrator 19.0.0, SVG Export Plug-In . SVG Version: 6.00 Build 0)  -->
<svg xmlns="http://www.w3.org/2000/svg" xmlns:xlink="http://www.w3.org/1999/xlink" version="1.1" id="Capa_1" x="0px" y="0px" viewBox="0 0 512.001 512.001" style="enable-background:new 0 0 512.001 512.001;" xml:space="preserve" width="512px" height="512px">
<g>
	<g>
		<path d="M351.312,160.689c-3.585-3.586-7.328-6.918-11.198-10.015l-64.872,64.872c4.497,2.142,8.713,5.064,12.431,8.782    c17.546,17.545,17.546,46.094,0,63.64L166.758,408.883c-17.545,17.545-46.094,17.545-63.64,0    c-17.546-17.545-17.545-46.094,0-63.64l8.949-8.949c-18.658-33.448-24.781-72.057-18.382-108.897l-54.207,54.207    c-52.637,52.637-52.637,138.282,0,190.919c52.637,52.637,138.282,52.637,190.919,0l120.915-120.915    C403.949,298.972,403.949,213.326,351.312,160.689z" fill="#FFFFFF"/>
	</g>
</g>
<g>
	<g>
		<path d="M472.523,39.478c-52.637-52.637-138.282-52.637-190.919,0L160.689,160.393c-52.637,52.637-52.637,138.282,0,190.919    c3.554,3.554,7.304,6.884,11.209,10.005l64.862-64.862c-4.497-2.142-8.713-5.064-12.431-8.782    c-17.489-17.488-17.541-45.906-0.166-63.465c-0.004-0.004,121.08-121.089,121.08-121.089c17.546-17.546,46.094-17.545,63.64,0    c17.545,17.546,17.546,46.094,0,63.64l-8.948,8.949c18.658,33.448,24.781,72.057,18.382,108.897l54.207-54.207    C525.16,177.76,525.16,92.114,472.523,39.478z" fill="#FFFFFF"/>
	</g>
</g>
<g>
</g>
<g>
</g>
<g>
</g>
<g>
</g>
<g>
</g>
<g>
</g>
<g>
</g>
<g>
</g>
<g>
</g>
<g>
</g>
<g>
</g>
<g>
</g>
<g>
</g>
<g>
</g>
<g>
</g>
</svg>
