<svg xmlns="http://www.w3.org/2000/svg" xmlns:xlink="http://www.w3.org/1999/xlink" width="19" height="19" viewBox="0 0 19 19">
  <defs>
    <clipPath id="clip-path">
      <rect id="Rectangle_6" data-name="Rectangle 6" width="19" height="19" transform="translate(225.286 13.286)" fill="#fff" stroke="#707070" stroke-width="1"/>
    </clipPath>
  </defs>
  <g id="Mask_Group_1" data-name="Mask Group 1" transform="translate(-225.286 -13.286)" clip-path="url(#clip-path)">
    <g id="homepage_1_" data-name="homepage (1)" transform="translate(225 13.194)">
      <g id="Group_1" data-name="Group 1" transform="translate(0 0)">
        <path id="Path_1" data-name="Path 1" d="M19.344,8.4,10.228.414a.67.67,0,0,0-.884,0L.228,8.4a.67.67,0,1,0,.884,1.008l.706-.619v9.969a.67.67,0,0,0,.67.67h14.6a.67.67,0,0,0,.67-.67V8.793l.706.619A.67.67,0,0,0,19.344,8.4ZM8.238,18.092V12.57h3.1v5.522ZM16.414,7.623V18.092H12.675V11.9a.67.67,0,0,0-.67-.67H7.568a.67.67,0,0,0-.67.67v6.192H3.159V7.623s0,0,0,0L9.786,1.809l6.628,5.809S16.414,7.622,16.414,7.623Z" transform="translate(0 -0.247)" fill="#fff"/>
        <path id="Path_2" data-name="Path 2" d="M10.582,8.084a.67.67,0,0,0,.67.67h1.662a.67.67,0,1,0,0-1.341H11.252A.67.67,0,0,0,10.582,8.084Z" transform="translate(-2.297 -1.803)" fill="#fff"/>
      </g>
    </g>
  </g>
</svg>
