<svg xmlns="http://www.w3.org/2000/svg" xmlns:xlink="http://www.w3.org/1999/xlink" width="18" height="18" viewBox="0 0 18 18">
  <defs>
    <clipPath id="clip-path">
      <rect id="Rectangle_7" data-name="Rectangle 7" width="18" height="18" transform="translate(368 12.802)" fill="#fff" stroke="#707070" stroke-width="1"/>
    </clipPath>
  </defs>
  <g id="Mask_Group_2" data-name="Mask Group 2" transform="translate(-368 -12.802)" clip-path="url(#clip-path)">
    <g id="avatar" transform="translate(369.352 12.981)">
      <g id="Group_3" data-name="Group 3" transform="translate(0)">
        <path id="Path_3" data-name="Path 3" d="M10.943,9.753h.12A3.459,3.459,0,0,0,13.706,8.61c1.443-1.627,1.2-4.415,1.177-4.681a3.824,3.824,0,0,0-1.818-3.4A4.167,4.167,0,0,0,11.048,0h-.064A4.174,4.174,0,0,0,8.968.514a3.826,3.826,0,0,0-1.84,3.415C7.1,4.194,6.861,6.983,8.3,8.61A3.445,3.445,0,0,0,10.943,9.753ZM8.128,4.022c0-.011,0-.022,0-.03.124-2.687,2.032-2.976,2.849-2.976h.045c1.012.022,2.732.435,2.849,2.976a.073.073,0,0,0,0,.03c0,.026.266,2.575-.926,3.917a2.457,2.457,0,0,1-1.93.8h-.037a2.449,2.449,0,0,1-1.927-.8C7.87,6.6,8.124,4.044,8.128,4.022Z" transform="translate(-3.311)" fill="#fff"/>
        <path id="Path_4" data-name="Path 4" d="M17.262,18.082v-.011c0-.03,0-.06,0-.094-.022-.742-.071-2.478-1.7-3.032l-.037-.011a10.815,10.815,0,0,1-3.111-1.417.506.506,0,1,0-.581.828,11.674,11.674,0,0,0,3.422,1.563c.873.311.971,1.244,1,2.1a.752.752,0,0,0,0,.094,6.8,6.8,0,0,1-.079,1.158A13.794,13.794,0,0,1,9.567,20.8a13.874,13.874,0,0,1-6.612-1.541A6.441,6.441,0,0,1,2.877,18.1c0-.03,0-.06,0-.094.026-.855.124-1.788,1-2.1A11.783,11.783,0,0,0,7.3,14.342a.506.506,0,1,0-.581-.828A10.7,10.7,0,0,1,3.608,14.93l-.037.011c-1.627.558-1.675,2.294-1.7,3.032a.753.753,0,0,1,0,.094v.011a5.748,5.748,0,0,0,.191,1.7.481.481,0,0,0,.195.236A14.177,14.177,0,0,0,9.571,21.8a14.22,14.22,0,0,0,7.316-1.792.5.5,0,0,0,.195-.236A6.03,6.03,0,0,0,17.262,18.082Z" transform="translate(-1.868 -3.704)" fill="#fff"/>
      </g>
    </g>
  </g>
</svg>
