<svg xmlns="http://www.w3.org/2000/svg" xmlns:xlink="http://www.w3.org/1999/xlink" width="19" height="19" viewBox="0 0 19 19">
  <defs>
    <clipPath id="clip-path">
      <rect id="Rectangle_9" data-name="Rectangle 9" width="19" height="19" transform="translate(825 17)" fill="#fff" stroke="#707070" stroke-width="1"/>
    </clipPath>
  </defs>
  <g id="Mask_Group_4" data-name="Mask Group 4" transform="translate(-825 -17)" clip-path="url(#clip-path)">
    <g id="settings_3_" data-name="settings (3)" transform="translate(825 17)">
      <g id="Group_18" data-name="Group 18" transform="translate(0 0)">
        <path id="Path_12" data-name="Path 12" d="M17.97,7.481,16.64,7.256a7.506,7.506,0,0,0-.534-1.29l.783-1.1a1.166,1.166,0,0,0-.127-1.507L15.584,2.184a1.161,1.161,0,0,0-.827-.344,1.15,1.15,0,0,0-.677.218l-1.1.783a7.428,7.428,0,0,0-1.337-.55L11.422.977A1.169,1.169,0,0,0,10.267,0H8.6A1.169,1.169,0,0,0,7.446.977L7.216,2.322a7.321,7.321,0,0,0-1.286.542L4.843,2.081a1.169,1.169,0,0,0-1.507.127L2.152,3.387a1.171,1.171,0,0,0-.127,1.507l.791,1.112A7.332,7.332,0,0,0,2.291,7.3L.977,7.521A1.169,1.169,0,0,0,0,8.676v1.666A1.169,1.169,0,0,0,.977,11.5l1.345.229a7.321,7.321,0,0,0,.542,1.286L2.085,14.1A1.166,1.166,0,0,0,2.212,15.6l1.179,1.179a1.161,1.161,0,0,0,.827.344,1.15,1.15,0,0,0,.677-.218l1.112-.791a7.485,7.485,0,0,0,1.25.514l.222,1.329a1.169,1.169,0,0,0,1.155.977H10.3a1.169,1.169,0,0,0,1.155-.977l.226-1.329a7.506,7.506,0,0,0,1.29-.534l1.1.783a1.161,1.161,0,0,0,.68.218h0a1.161,1.161,0,0,0,.827-.344l1.179-1.179a1.171,1.171,0,0,0,.127-1.507l-.783-1.1a7.452,7.452,0,0,0,.534-1.29l1.329-.222a1.169,1.169,0,0,0,.977-1.155V8.637A1.155,1.155,0,0,0,17.97,7.481ZM17.879,10.3a.1.1,0,0,1-.087.1l-1.662.277a.531.531,0,0,0-.427.392,6.333,6.333,0,0,1-.688,1.658.535.535,0,0,0,.024.582l.977,1.377a.108.108,0,0,1-.012.135L14.824,16a.1.1,0,0,1-.075.032.1.1,0,0,1-.059-.02l-1.373-.977a.535.535,0,0,0-.582-.024,6.334,6.334,0,0,1-1.658.688.525.525,0,0,0-.392.427l-.281,1.662a.1.1,0,0,1-.1.087H8.637a.1.1,0,0,1-.1-.087L8.257,16.13a.531.531,0,0,0-.392-.427,6.576,6.576,0,0,1-1.622-.665.548.548,0,0,0-.269-.071.521.521,0,0,0-.309.1l-1.385.985a.118.118,0,0,1-.059.02.106.106,0,0,1-.075-.032L2.967,14.86a.107.107,0,0,1-.012-.135l.973-1.365a.542.542,0,0,0,.024-.586,6.274,6.274,0,0,1-.7-1.654.542.542,0,0,0-.427-.392l-1.674-.285a.1.1,0,0,1-.087-.1V8.676a.1.1,0,0,1,.087-.1L2.805,8.3a.535.535,0,0,0,.431-.4,6.327,6.327,0,0,1,.677-1.662.528.528,0,0,0-.028-.578L2.9,4.277a.108.108,0,0,1,.012-.135L4.091,2.963a.1.1,0,0,1,.075-.032.1.1,0,0,1,.059.02l1.365.973a.542.542,0,0,0,.586.024,6.274,6.274,0,0,1,1.654-.7.542.542,0,0,0,.392-.427l.285-1.674a.1.1,0,0,1,.1-.087h1.666a.1.1,0,0,1,.1.087l.277,1.65a.535.535,0,0,0,.4.431,6.422,6.422,0,0,1,1.7.7.535.535,0,0,0,.582-.024l1.365-.981a.118.118,0,0,1,.059-.02.106.106,0,0,1,.075.032l1.179,1.179a.107.107,0,0,1,.012.135l-.977,1.373a.535.535,0,0,0-.024.582,6.333,6.333,0,0,1,.688,1.658.525.525,0,0,0,.427.392l1.662.281a.1.1,0,0,1,.087.1V10.3Z" transform="translate(0 0)" fill="#fff"/>
        <path id="Path_13" data-name="Path 13" d="M9.773,5.682A4.087,4.087,0,1,0,13.86,9.769,4.089,4.089,0,0,0,9.773,5.682Zm0,7.106a3.019,3.019,0,1,1,3.019-3.019A3.021,3.021,0,0,1,9.773,12.788Z" transform="translate(-0.302 -0.301)" fill="#fff"/>
      </g>
    </g>
  </g>
</svg>
